<svg xmlns="http://www.w3.org/2000/svg" viewBox="0 0 1024 1024" width="1024" height="1024">
  <defs>
    <linearGradient id="body-grad" x1="0.2" y1="0" x2="0.8" y2="1">
      <stop offset="0%" stop-color="#a78bfa"/>
      <stop offset="40%" stop-color="#8b5cf6"/>
      <stop offset="100%" stop-color="#7c3aed"/>
    </linearGradient>
    <radialGradient id="glow" cx="0.5" cy="0.45" r="0.4">
      <stop offset="0%" stop-color="rgba(139,92,246,0.25)"/>
      <stop offset="100%" stop-color="rgba(139,92,246,0)"/>
    </radialGradient>
    <filter id="shadow" x="-20%" y="-20%" width="140%" height="140%">
      <feDropShadow dx="0" dy="6" stdDeviation="16" flood-color="#8b5cf6" flood-opacity="0.35"/>
    </filter>
  </defs>

  <!-- Glow behind mascot -->
  <circle cx="512" cy="512" r="320" fill="url(#glow)"/>

  <!-- Antenna stem -->
  <rect x="499" y="215" width="26" height="110" rx="13" fill="#8b5cf6"/>

  <!-- Antenna tip -->
  <circle cx="512" cy="205" r="38" fill="#c4b5fd">
    <animate attributeName="r" values="38;42;38" dur="2s" repeatCount="indefinite"/>
  </circle>
  <!-- Antenna glow -->
  <circle cx="512" cy="205" r="38" fill="none" stroke="#c4b5fd" stroke-width="4" opacity="0.4">
    <animate attributeName="r" values="42;55;42" dur="2s" repeatCount="indefinite"/>
    <animate attributeName="opacity" values="0.4;0;0.4" dur="2s" repeatCount="indefinite"/>
  </circle>

  <!-- Body -->
  <ellipse cx="512" cy="520" rx="230" ry="230" fill="url(#body-grad)" filter="url(#shadow)"/>

  <!-- Body highlight -->
  <ellipse cx="468" cy="455" rx="105" ry="62" fill="rgba(255,255,255,0.08)" transform="rotate(-20, 468, 455)"/>

  <!-- Left arm -->
  <ellipse cx="270" cy="560" rx="52" ry="58" fill="#7c3aed" transform="rotate(15, 270, 560)"/>

  <!-- Right arm -->
  <ellipse cx="754" cy="560" rx="52" ry="58" fill="#7c3aed" transform="rotate(-15, 754, 560)"/>

  <!-- Left eye -->
  <ellipse cx="428" cy="495" rx="58" ry="60" fill="#ffffff"/>
  <!-- Left pupil -->
  <circle cx="436" cy="500" r="32" fill="#1e1b4b"/>
  <!-- Left eye shine -->
  <circle cx="447" cy="487" r="11" fill="rgba(255,255,255,0.8)"/>

  <!-- Right eye -->
  <ellipse cx="596" cy="495" rx="58" ry="60" fill="#ffffff"/>
  <!-- Right pupil -->
  <circle cx="604" cy="500" r="32" fill="#1e1b4b"/>
  <!-- Right eye shine -->
  <circle cx="615" cy="487" r="11" fill="rgba(255,255,255,0.8)"/>

  <!-- Smile -->
  <path d="M 458 580 Q 512 622 566 580" stroke="#1e1b4b" stroke-width="10" fill="none" stroke-linecap="round"/>

  <!-- Cheeks (blush) -->
  <ellipse cx="375" cy="565" rx="32" ry="19" fill="rgba(244,114,182,0.3)"/>
  <ellipse cx="649" cy="565" rx="32" ry="19" fill="rgba(244,114,182,0.3)"/>
</svg>
